<?xml version="1.0" encoding="UTF-8"?>
<svg preserveAspectRatio="xMidYMid" version="1.1" viewBox="0 0 512 146" xmlns="http://www.w3.org/2000/svg">
 <g fill="#343433">
  <path d="m27.127 0.90201c-10.446 4.3761-21.93 16.723-25.557 32.233-4.5934 19.646 14.522 27.955 16.089 25.234 1.8453-3.2009-3.4251-4.2833-4.5101-14.477-1.402-13.166 4.7188-27.877 12.423-34.332 1.4312-1.1992 1.3633 0.46991 1.3633 3.5574 0 5.5212-0.30497 55.085-0.30497 65.429 0 13.997-0.57815 18.417-1.6168 22.784-1.0515 4.4259-2.743 7.4163-1.4621 8.5683 1.4321 1.2886 7.546-1.7765 11.085-6.7161 4.2438-5.9241 5.7291-13.039 5.9962-20.765 0.32215-9.3139 0.3084-24.093 0.32215-32.523 0.012027-7.7315 0.12972-30.371-0.13573-43.981-0.065289-3.3383-9.3234-6.8407-13.693-5.01"/>
  <path d="m398.07 66.405c-0.33675 7.2762-1.9475 12.964-3.9465 16.976-3.8701 7.7668-11.901 10.178-15.31-0.9862-1.8581-6.0856-1.9449-16.25-0.60907-24.743 1.3599-8.6516 5.1569-15.186 11.444-14.596 6.2016 0.58244 9.1043 8.5734 8.4214 23.349zm-104.55 45.145c-0.084188 12.09-1.987 22.691-6.0675 25.77-5.7875 4.3657-13.566 1.091-11.956-7.7315 1.4252-7.8071 8.1654-15.78 18.039-25.522 0 0 0.020618 2.2215-0.016322 7.4833zm-1.5807-45.217c-0.35393 6.6277-2.0721 13.285-3.9465 17.047-3.8692 7.7668-11.958 10.194-15.31-0.9862-2.292-7.6396-1.743-17.527-0.60907-23.756 1.4716-8.0829 5.0384-15.582 11.444-15.582 6.2282 0 9.2993 6.833 8.4214 23.277zm-60.565-0.10051c-0.3797 7.0185-1.749 12.886-3.9465 17.148-3.9757 7.7135-11.841 10.159-15.31-0.9862-2.5007-8.0374-1.6494-18.996-0.60907-24.915 1.5437-8.7848 5.4095-15.013 11.444-14.423 6.199 0.60564 9.2126 8.5726 8.4214 23.177zm277.55 8.198c-1.5154 0-2.2069 1.5626-2.7791 4.1914-1.9844 9.143-4.0702 11.206-6.7599 11.206-3.005 0-5.705-4.5264-6.3991-13.589-0.5455-7.1259-0.45788-20.244 0.23968-33.293 0.1426-2.6811-0.59705-5.3339-7.7882-7.9463-3.0943-1.1237-7.5924-2.7782-9.8319 2.6279-6.3278 15.273-8.8037 27.399-9.3861 32.324-0.030067 0.25514-0.34276 0.30754-0.39774-0.28864-0.37111-3.9448-1.201-11.115-1.3041-26.176-0.019759-2.9388-0.64258-5.4404-3.8864-7.4884-2.1047-1.329-8.4961-3.6794-10.798-0.88311-1.9939 2.2868-4.303 8.4411-6.7024 15.736-1.9501 5.9292-3.3082 9.9402-3.3082 9.9402s0.025772-15.998 0.048967-22.067c0.010308-2.2894-1.5601-3.0522-2.0334-3.1906-2.1313-0.61766-6.3304-1.6511-8.113-1.6511-2.1992 0-2.7378 1.2285-2.7378 3.0196 0 0.23538-0.34706 21.063-0.34706 35.628 0 0.63313 8.6e-4 1.323 0.003437 2.0566-1.2164 6.6938-5.1612 15.781-9.4514 15.781-4.2953 0-6.3218-3.7988-6.3218-21.162 0-10.128 0.30411-14.534 0.45358-21.86 0.086765-4.2197 0.25428-7.4601 0.24483-8.1954-0.031785-2.255-3.9311-3.3916-5.7454-3.8117-1.8229-0.42266-3.407-0.5876-4.6441-0.51715-1.7508 0.099651-2.9895 1.2474-2.9895 2.8272 0 0.84789 0.00945 2.4578 0.00945 2.4578-2.255-3.5436-5.882-6.01-8.2951-6.7247-6.4997-1.9303-13.282-0.21906-18.398 6.9386-4.0659 5.6878-6.5168 12.13-7.4816 21.385-0.70529 6.7668-0.47506 13.628 0.77831 19.431-1.5145 6.5478-4.3262 9.2306-7.4051 9.2306-4.4697 0-7.7101-7.2951-7.3338-19.913 0.24827-8.2985 1.9088-14.123 3.724-22.549 0.77401-3.5917 0.14518-5.4722-1.4321-7.2745-1.4467-1.6528-4.529-2.4973-8.96-1.4587-3.1562 0.74051-7.6688 1.5369-11.797 2.1485 0 0 0.24913-0.99393 0.45358-2.7464 1.0738-9.1902-8.9128-8.4446-12.099-5.5092-1.902 1.7525-3.1966 3.8194-3.6879 7.5357-0.77917 5.8974 4.0307 8.6791 4.0307 8.6791-1.5781 7.2247-5.4464 16.661-9.4402 23.483-2.1391 3.6553-3.7756 6.3639-5.888 9.2435-0.007731-1.0721-0.013745-2.1451-0.017181-3.212-0.048107-15.187 0.15377-27.139 0.24311-31.448 0.086765-4.2197 0.256-7.3742 0.24655-8.1095-0.024054-1.6485-0.98706-2.2722-2.9904-3.0608-1.7714-0.69756-3.8658-1.1803-6.0383-1.3487-2.7421-0.21305-4.3941 1.2405-4.3511 2.9603 0.00859 0.32472 0.00859 2.3186 0.00859 2.3186-2.255-3.5436-5.882-6.01-8.2951-6.7247-6.4997-1.9294-13.282-0.21906-18.398 6.9386-4.0651 5.6878-6.7273 13.669-7.4816 21.315-0.70271 7.1259-0.57299 13.181 0.38486 18.283-1.0334 5.108-4.0049 10.45-7.3647 10.45-4.2953 0-6.7393-3.7988-6.7393-21.162 0-10.128 0.30411-14.534 0.45358-21.859 0.086765-4.2197 0.25428-7.4609 0.24483-8.1954-0.031785-2.255-3.9311-3.3916-5.7454-3.8125-1.8985-0.43898-3.5376-0.60048-4.7961-0.50685-1.6606 0.12285-2.828 1.6099-2.828 2.7189v2.5557c-2.255-3.5436-5.882-6.01-8.2951-6.7247-6.4997-1.9294-13.244-0.19157-18.398 6.9386-3.3606 4.6492-6.0813 9.8036-7.4816 21.214-0.40462 3.2971-0.5833 6.3854-0.56011 9.271-1.3401 8.1963-7.2591 17.642-12.101 17.642-2.8332 0-5.5315-5.4954-5.5315-17.207 0-15.601 0.96558-37.812 1.1288-39.952 0 0 6.1174-0.10395 7.302-0.11769 3.0514-0.033503 5.815 0.038658 9.8792-0.16923 2.0386-0.10395 4.0024-7.4197 1.8985-8.3252-0.95356-0.40977-7.6929-0.76886-10.365-0.82556-2.2464-0.050685-8.5004-0.51372-8.5004-0.51372s0.56097-14.743 0.69154-16.301c0.11082-1.298-1.5686-1.9664-2.5317-2.3719-2.3418-0.9905-4.437-1.4647-6.9206-1.9767-3.4311-0.70787-4.9877-0.015463-5.2918 2.8804-0.45788 4.395-0.69498 17.268-0.69498 17.268-2.5179 0-11.119-0.49224-13.638-0.49224-2.3401 0-4.8657 10.064-1.6305 10.188 3.7223 0.14432 10.209 0.26974 14.51 0.3986 0 0-0.19157 22.578-0.19157 29.549 0 0.74137 0.003436 1.4552 0.007731 2.1485-2.3667 12.335-10.703 18.999-10.703 18.999 1.7903-8.1611-1.8667-14.29-8.454-19.477-2.4268-1.9114-7.2178-5.5306-12.578-9.4969 0 0 3.1046-3.0591 5.8579-9.216 1.9509-4.3614 2.0351-9.3509-2.7533-10.451-7.9119-1.8195-14.436 3.9912-16.381 10.194-1.5077 4.8064-0.70357 8.3715 2.2499 12.076 0.21562 0.2706 0.44929 0.54722 0.69068 0.82556-1.786 3.4423-4.2395 8.0769-6.3175 11.671-5.7677 9.9788-10.125 17.872-13.418 17.872-2.6322 0-2.5969-8.0142-2.5969-15.517 0-6.4679 0.47764-16.192 0.85906-26.261 0.12628-3.3297-1.5386-5.2265-4.3297-6.9446-1.6958-1.0438-5.315-3.0961-7.4111-3.0961-3.1373 0-12.189 0.42695-20.742 25.167-1.0781 3.1184-3.1957 8.8002-3.1957 8.8002l0.18298-29.751c0-0.69756-0.37197-1.3719-1.2224-1.8332-1.4415-0.7826-5.291-2.383-8.7134-2.383-1.6305 0-2.4449 0.75855-2.4449 2.2705l-0.29809 46.546c0 3.5376 0.091919 7.6628 0.44156 9.4668 0.34878 1.8066 0.91318 3.2765 1.6116 4.151 0.69842 0.87281 1.5059 1.5386 2.8366 1.8135 1.2388 0.25514 8.0236 1.1262 8.3758-1.4664 0.42266-3.1072 0.43898-6.4679 4.0015-19.002 5.5461-19.514 12.776-29.035 16.176-32.416 0.59447-0.59103 1.2731-0.62626 1.2405 0.34105-0.14518 4.2781-0.65546 14.969-0.99909 24.05-0.92091 24.305 3.5007 28.809 9.8191 28.809 4.8339 0 11.648-4.803 18.953-16.961 4.5539-7.5769 8.9755-15.006 12.152-20.361 2.2138 2.0497 4.6982 4.2549 7.1809 6.6113 5.7694 5.4757 7.6637 10.679 6.4069 15.615-0.96129 3.7739-4.5814 7.6628-11.024 3.883-1.8779-1.103-2.6794-1.9552-4.5676-3.1983-1.0146-0.66749-2.5634-0.86765-3.4921-0.16752-2.4122 1.8186-3.7919 4.1321-4.5797 6.9962-0.76628 2.7868 2.0248 4.2601 4.9181 5.5487 2.4913 1.109 7.8458 2.1141 11.261 2.2284 13.305 0.44499 23.963-6.4241 31.383-24.143 1.3281 15.303 6.9807 23.962 16.802 23.962 6.5658 0 13.149-8.4867 16.027-16.836 0.82642 3.4036 2.0497 6.3631 3.6295 8.8664 7.5675 11.99 22.248 9.4093 29.622-0.7723 2.2799-3.1459 2.627-4.2764 2.627-4.2764 1.0755 9.6137 8.8174 12.973 13.25 12.973 4.9645 0 10.091-2.347 13.683-10.435 0.42094 0.87796 0.88054 1.7164 1.3822 2.511 7.5675 11.99 22.248 9.4093 29.622-0.7723 0.34792-0.47764 0.64945-0.9106 0.91318-1.2998l0.21648 6.315s-4.2068 3.8589-6.7892 6.2265c-11.38 10.43-20.025 18.341-20.66 27.554-0.80924 11.747 8.7117 16.113 15.926 16.685 7.6474 0.60736 14.208-3.6209 18.234-9.5381 3.5436-5.2085 5.8631-16.418 5.693-27.49-0.067866-4.4336-0.17954-10.071-0.26717-16.113 3.9946-4.6389 8.4952-10.503 12.639-17.365 4.5161-7.479 9.356-17.523 11.834-25.34 0 0 4.2051 0.03608 8.6928-0.25772 1.4355-0.093638 1.8478 0.1993 1.5824 1.2517-0.32043 1.2714-5.6698 21.904-0.78776 35.649 3.3417 9.4093 10.875 12.437 15.341 12.437 5.2282 0 10.23-3.9482 12.91-9.8113 0.32301 0.65374 0.66062 1.286 1.0292 1.8702 7.5675 11.99 22.196 9.3938 29.622-0.7723 1.676-2.2937 2.627-4.2764 2.627-4.2764 1.5936 9.9496 9.3311 13.023 13.763 13.023 4.6166 0 8.9978-1.8925 12.553-10.304 0.14862 3.7034 0.38228 6.7316 0.75168 7.686 0.22507 0.58416 1.5369 1.3169 2.4913 1.6709 4.2231 1.5661 8.5305 0.82556 10.124 0.50341 1.1039-0.22336 1.9647-1.109 2.0824-3.3959 0.30926-6.0048 0.11941-16.094 1.9398-23.592 3.0557-12.584 5.906-17.465 7.2582-19.881 0.75683-1.3539 1.6107-1.5772 1.6417-0.14432 0.063571 2.8993 0.20789 11.413 1.3917 22.853 0.86937 8.4128 2.0308 13.386 2.9234 14.96 2.5471 4.5006 5.693 4.7137 8.2547 4.7137 1.6296 0 5.0375-0.45015 4.7326-3.3143-0.14862-1.396 0.11168-10.024 3.1244-22.421 1.9672-8.0958 5.2471-15.41 6.4301-18.085 0.4364-0.9862 0.63914-0.20875 0.63227-0.057557-0.24913 5.5753-0.80838 23.811 1.463 33.785 3.0789 13.511 11.986 15.023 15.089 15.023 6.6259 0 12.045-5.0401 13.87-18.302 0.43984-3.1914-0.21133-5.6561-2.1623-5.6561z"/>
 </g>
</svg>
